<svg version="1" xmlns="http://www.w3.org/2000/svg" width="933.333" height="933.333" viewBox="0 0 700.000000 700.000000"><path d="M338.3 20.2c-11.1 19.3-29.8 51.8-51.5 89.3-6.4 11-12.5 21.6-13.5 23.5-1.1 1.9-8.6 14.7-16.5 28.5-8 13.7-19.7 34-26 45-6.3 11-17.5 30.3-24.8 43-39.1 67.5-47.3 81.8-65 112.5-10.6 18.4-22.5 38.9-26.3 45.5-3.8 6.6-8 13.8-9.2 16-1.3 2.2-4.7 8-7.6 13-2.8 4.9-6.5 11.5-8.2 14.5-1.6 3-3.6 6.2-4.3 7.1-.8.8-1.4 1.8-1.4 2.2 0 .4-17.6 31.4-20.9 36.7-.8 1.3-9.7 16.7-20.2 34.9-13.2 22.9-15.8 27.6-15.5 27.8.4.4 644.8.4 645.2 0 .2-.2-5.1-9.7-11.7-21.3-6.7-11.5-19-32.8-27.4-47.4-8.4-14.6-27.8-48.1-43-74.5-15.3-26.4-28.9-50-30.3-52.5-1.4-2.5-4.5-7.8-6.9-11.8-2.4-4.1-4.3-7.6-4.3-7.9 0-.3-.8-1.7-1.9-3.1-1-1.5-3.1-5-4.6-7.7-1.5-2.8-9.2-16.2-17.2-29.9s-15.4-26.5-16.5-28.5c-1.1-2-8.7-15.1-16.8-29.1-14.8-25.7-58.7-101.6-62-107.4-.9-1.7-8.3-14.4-16.2-28.1-8-13.8-20.7-35.8-28.3-49-7.6-13.2-14.7-25.6-15.9-27.6C354 6.8 350.5 1 350 1c-.4 0-5.7 8.7-11.7 19.2zm14.6 57c1.2 2.4 5.5 9.9 9.5 16.8 8.8 15.2 70 121.1 72.8 126 5.3 9.2 15.4 26.7 16.5 28.5.7 1.1 1.6 2.7 2 3.5.7 1.5 11.4 20.1 13.2 23 .8 1.2 9.6 16.6 14.7 25.5.6 1.1 10.2 17.7 21.4 37 30.5 52.7 46 79.5 48.8 84.5 1.4 2.5 7.1 12.4 12.7 22 18.9 32.4 45.5 78.9 45.5 79.4 0 .2-117 .4-260 .4s-260-.2-260-.5c0-.2 1.1-2.3 2.4-4.6 1.3-2.3 10.8-18.8 21.1-36.7 10.3-17.9 21.9-37.9 25.8-44.5 3.8-6.6 8-13.8 9.3-16 1.2-2.3 7-12.3 12.8-22.4 5.8-10.1 10.6-18.6 10.6-18.9 0-.3.6-1.3 1.4-2.1.7-.9 2.6-3.9 4.1-6.6 1.5-2.8 8.8-15.6 16.3-28.5s14.2-24.6 14.9-26c.8-1.4 2.2-3.9 3.2-5.5 1-1.7 16.1-27.8 33.6-58 17.5-30.3 32.7-56.6 33.8-58.5 1.1-1.9 3.1-5.5 4.5-8 1.3-2.5 2.7-5 3.2-5.5.4-.6 1.9-3 3.2-5.5 2.6-4.7 49.3-85.4 53.5-92.5 1.3-2.2 3.1-5.5 4-7.3.9-1.7 2-3.2 2.3-3.2.4 0 1.7 1.9 2.9 4.2z"/><path d="M347.9 191.7c-.6 1.6-2.2 6.3-3.6 10.5l-2.4 7.8-4.2.1c-2.3 0-7.5.1-11.4.1-9.8 0-9.7 1.7.7 8.8 4.4 3 8.2 6.1 8.5 6.9.3.7-.9 5.8-2.6 11.3-1.8 5.8-2.7 10.4-2.2 10.9s4.7-1.8 9.8-5.6c4.9-3.6 9.2-6.5 9.5-6.5.3 0 4.6 2.9 9.5 6.5 5.4 4 9.3 6.1 9.8 5.6.6-.6-.3-4.6-2.2-10.4-1.7-5.2-3.1-10.1-3.1-10.8 0-1.2 13.4-11.8 16.1-12.7.5-.2.9-1.2.9-2.2 0-1.6-1-1.8-9.7-1.8-5.4-.1-10.6-.1-11.5-.1-1.3-.1-2.6-2.7-5-10.6-3.4-10.8-5-12.6-6.9-7.8zM291 272.7c-1.8 5.4-3.6 10.2-4 10.7-.5.4-5.7.9-11.6 1-7.1.1-10.9.5-11.1 1.2-.2.7 3.4 3.9 8.1 7.3 4.6 3.4 8.6 6.6 8.8 7.3.2.6-1 5.5-2.7 10.7-1.8 5.3-3 10.2-2.7 10.8.5 1.6 1.9.9 11.7-6.2 8.7-6.2 7.3-6.3 18.5 1.8 10 7.3 10.7 6.6 6.4-6.5-1.8-5.5-3.1-10.4-2.9-10.8.3-.5 4.3-3.6 9-7.1 4.7-3.4 8.4-6.7 8.2-7.3-.2-.7-4.4-1.1-10.9-1.2-5.8-.1-11-.4-11.6-.8-.6-.3-2.4-5.1-4.2-10.6-1.9-6.4-3.6-10-4.4-10-.9 0-2.6 3.6-4.6 9.7zM400 272.7c-1.8 5.4-3.6 10.2-4 10.8-.5.6-4.9.9-10.2.8-9.6-.1-12.8.3-12.8 1.6 0 .5 4 3.8 8.9 7.4l9 6.6-1.9 6.3c-1 3.5-2.5 8.4-3.4 11-2.1 6.6-.4 6.7 8.4.1 10.8-8.1 10.1-8 20-.8 10.2 7.6 11.9 7.3 8.9-1.3-1.1-3.1-2.6-7.9-3.4-10.5l-1.4-4.8 9-6.6c4.9-3.6 8.8-7.1 8.6-7.7-.2-.7-4.2-1.2-11.1-1.3-6 0-11.2-.5-11.6-1-.4-.4-2.2-5.2-4-10.6-1.9-5.8-3.7-9.7-4.5-9.7-.8 0-2.6 3.9-4.5 9.7zM450.3 345.2c-.6.7-2 4.4-3.2 8.3-4.4 13.8-2.7 12.4-15.4 12.7-7 .2-11.2.7-11.4 1.4-.2.6 3.7 4.1 8.6 7.7l8.9 6.6-1.3 4.3c-.7 2.4-2.1 6.5-3 9.2-3.7 10.7-2.7 11 8.9 2.6 4.6-3.3 8.6-6 9-6 .4 0 4.3 2.7 8.8 6 12.1 8.8 12.6 8.4 7.8-5.9-1.7-4.9-2.8-9.5-2.4-10.3.3-.7 4.3-4 8.9-7.3 4.7-3.3 8.3-6.5 8.1-7-.1-.6-5.4-1.2-11.7-1.5l-11.4-.5-3.5-10.2c-1.9-5.6-3.8-10.5-4.1-10.8-.3-.3-1.1 0-1.6.7zM243.9 355.2l-3.4 10.3-11.5.5c-6.3.3-11.4.8-11.2 1.2.1.5.2 1.1.2 1.5.1.5 3.6 3.3 8 6.3 4.3 3 8.1 6.1 8.4 6.8.3.7-.8 5.3-2.4 10.3-4.8 14.3-4.3 14.7 7.7 5.9 5.7-4.2 8.7-5.8 9.9-5.3 1 .4 5 3.1 8.8 6 3.9 2.9 7.9 5.3 8.9 5.3 2 0 2.2.7-2.2-12.7-1.7-5.1-2.4-8.8-1.9-9.7.5-.8 4.5-4 8.9-7.1 4.4-3.2 7.8-6.2 7.6-6.9-.2-.7-4.2-1.2-11.5-1.4-6.2-.1-11.2-.4-11.2-.5-.1-.1-1.6-4.7-3.4-10.2-2-6.1-3.9-10.1-4.8-10.3-1.1-.2-2.4 2.5-4.9 10zM345.2 355.5l-3.3 10.5h-11.5c-9.1 0-11.4.3-11.4 1.4 0 .8 3.3 3.8 7.3 6.7 8.2 6.1 9.7 7.4 9.7 8.6 0 .4-1.4 5.1-3 10.3-1.7 5.2-2.8 10.1-2.5 10.8.4 1 2.5 0 7.3-3.4 3.7-2.6 7.6-5.5 8.8-6.6 1.1-1 2.5-1.8 3-1.8s4.7 2.7 9.3 6c8 5.7 11.1 7.1 11.1 5.1 0-.5-1.4-5.1-3-10.2-1.7-5.1-2.9-9.9-2.8-10.6.2-.6 4.1-4 8.8-7.5 4.6-3.5 8.3-6.8 8.2-7.3-.1-.6-4.9-1.1-11.2-1.3-12.7-.3-11.8.4-16.1-13.5-3.3-10.7-4.6-10.3-8.7 2.8zM198.4 430.8c-.6.4-1.9 3.4-2.9 6.7-1 3.3-2.7 7.9-3.6 10.2l-1.8 4.2-9.8-.1c-5.4 0-10.4 0-11 .1-3.2.2-.7 3.4 6.8 8.7 4.4 3.1 8.3 6.3 8.6 7 .3.7-.9 5.6-2.6 10.8-1.7 5.1-3.1 9.9-3.1 10.5 0 2.1 2.3 1.1 10.7-4.9 4.6-3.3 8.9-6 9.6-6 .6 0 4.8 2.7 9.1 6 7.5 5.6 10.6 7.2 10.6 5.1 0-.5-1.3-5.1-3-10.2-1.6-5.2-3-9.9-3-10.6 0-.6 3.8-4 8.5-7.4 7.4-5.3 10.3-8.8 7.8-9-.5 0-5.5-.1-11.3-.2l-10.5-.2-3.5-10.2c-3.8-11.1-4.1-11.5-5.6-10.5zM298 432.2c-.5 1.3-2.3 6.1-3.8 10.8l-2.9 8.5-11.3.2c-6.2.1-11.5.5-11.8.7-.9.9 2 3.6 9.4 8.8 4 2.8 7.5 5.7 7.8 6.4.3.7-.8 5.2-2.4 10-3.1 9.2-3.7 12.4-2 12.4.5 0 4.8-2.8 9.5-6.1 9.9-7.1 9-7.1 19.8 1 3.7 2.8 7.2 5.1 7.7 5.1 1.9 0 1.6-2.9-1.2-10.9-3.7-11-3.6-12.1 1-15.1 2-1.4 3.9-2.7 4.2-3 .3-.3 2.2-1.6 4.2-3 3.6-2.4 5.4-4.7 4.4-5.7-.2-.3-5.2-.5-11-.5-6.9.1-10.8-.3-11.4-1.1-.5-.7-2.4-5.6-4.1-11-1.8-5.3-3.7-9.7-4.2-9.7s-1.4 1-1.9 2.2zM396 439.7c-1.8 5.4-3.6 10.3-4.2 11-.6.8-3.8 1.2-8.6 1.2-13-.1-14.2 0-14.2 1.4 0 .7 3.4 3.7 7.7 6.7 11.1 8 10.5 6.8 7.6 15.7-4.3 13.4-4.3 13.4-2.8 13.9.7.3 5-2.2 9.5-5.5 4.5-3.4 8.6-6.1 9.1-6.1.9 0 12.8 8 16 10.7 2.2 1.8 3.9 1.6 3.9-.5 0-1-1.3-5.8-3-10.6-1.6-4.9-2.6-9.4-2.2-10.1.4-.7 4.5-4.1 9.1-7.5 5.6-4.1 8-6.5 7.3-7.2-.5-.5-5.6-1-11.2-1-6.2 0-10.6-.5-11.2-1.2-.6-.6-2.4-5.3-4.2-10.5-1.7-5.2-3.6-9.6-4.3-9.8-.7-.3-2.4 3.5-4.3 9.4zM499.6 430.8c-.2.4-1.6 4.5-3 9-4 12.6-3.2 11.9-13.3 12-13.1.1-13.3.1-13.3 1.6 0 .7 3.8 4.1 8.5 7.5 4.7 3.4 8.5 6.8 8.5 7.5 0 .7-1.3 5.2-3 10.1-1.6 4.9-3 9.5-3 10.2 0 2.5 2.7 1.3 10.6-4.7 4.3-3.3 8.5-6 9.2-6 .7 0 4.9 2.7 9.4 6 8.2 6 10.8 7.1 10.8 4.7 0-.6-1.4-5.2-3-10.1-1.7-4.9-3-9.5-3-10.2 0-.7 2.6-3.2 5.8-5.5 12.2-8.9 12.4-9.1 11.3-10.2-.6-.6-5.5-1-11.6-.9l-10.6.1-1.8-4.2c-.9-2.3-2.5-7-3.6-10.4-1.6-5.6-3.7-8.4-4.9-6.5zM332.4 613.2c-.3.4-.5 6.2-.6 12.8l-.1 12h-25.5l.1 18.2.2 18.2H332l-.3 12.8-.2 12.8H368l.1-2.8c0-1.5.1-7.2.2-12.7l.2-10 11.5-.1c6.3-.1 12-.2 12.7-.3.9-.1 1.2-4.7 1.2-18.1v-18h-25.6l-.1-12.1c0-6.6-.3-12.3-.7-12.7-.9-1-34.5-1-35.1 0zM89.7 638.7c-.4.7-.2 34.1.1 35.3.1.3 37 .5 81.9.4l81.8-.1.3-18.1.2-18.2h-81.9c-45.1 0-82.2.3-82.4.7zM446 656c0 16.4.2 18 1.8 18.1.9 0 37.8.1 82 .2 79.6.2 80.3.2 80.7-1.8.2-1.1.3-9.2.2-18l-.2-16-82.2-.3-82.3-.2v18z"/></svg>